<svg width="4001" height="2944" viewBox="0 0 4001 2944" fill="none" xmlns="http://www.w3.org/2000/svg">
<g clip-path="url(#clip0_1_32)">
<path d="M17.769 2065.86C2.90747 2089.17 19.6521 2119.7 47.2984 2119.7H1745.83C1772.33 2119.7 1789.23 2091.41 1776.67 2068.08L1691.81 1910.49C1685.7 1899.14 1673.86 1892.07 1660.98 1892.07H582.91C556.877 1892.07 539.945 1864.67 551.587 1841.39L838.633 1267.29C852.586 1239.38 893.312 1242.28 903.178 1271.87L984.737 1516.55C995.228 1548.03 1039.53 1548.63 1050.87 1517.45L1198.82 1110.59C1209.32 1081.7 1249.3 1079.4 1263.05 1106.9L1324.32 1229.44C1335.85 1252.5 1367.51 1255.61 1383.31 1235.24L1990.72 451.989C2003.47 435.55 2027.65 433.784 2042.66 448.197L2885.75 1258.24C2898.29 1270.29 2900.09 1289.7 2889.98 1303.85L2480.31 1877.4C2473.74 1886.61 2463.12 1892.07 2451.81 1892.07H2174.23C2162.07 1892.07 2150.78 1898.38 2144.4 1908.74L2047.43 2066.33C2033.07 2089.66 2049.85 2119.7 2077.25 2119.7H2883.78C2898.14 2119.7 2911.05 2110.93 2916.34 2097.57L3209.32 1357.39C3220.78 1328.45 3261.49 1327.72 3273.97 1356.25L3598.79 2098.72C3604.37 2111.46 3616.96 2119.7 3630.88 2119.7H3965.93C3993.24 2119.7 4010.04 2089.82 3995.85 2066.48L3267.15 868.17C3254.28 846.996 3224.09 845.528 3209.22 865.354L3055.61 1070.16C3042.41 1087.77 3016.43 1088.97 3001.65 1072.67L2039.99 11.5035C2026.28 -3.61649 2002.61 -3.8664 1988.59 10.9609L1128.81 920.354C1115.26 934.688 1092.55 935.006 1078.6 921.058L907.287 749.738C891.453 733.904 865.032 736.794 852.995 755.676L17.769 2065.86Z" fill="black"/>
<path fill-rule="evenodd" clip-rule="evenodd" d="M2075.86 1716.97C2303.12 1716.97 2487.35 1532.74 2487.35 1305.48C2487.35 1078.22 2303.12 893.995 2075.86 893.995C1848.61 893.995 1664.38 1078.22 1664.38 1305.48C1664.38 1532.74 1848.61 1716.97 2075.86 1716.97ZM2075.86 1506.85C2187.07 1506.85 2277.23 1416.69 2277.23 1305.48C2277.23 1194.27 2187.07 1104.12 2075.86 1104.12C1964.65 1104.12 1874.5 1194.27 1874.5 1305.48C1874.5 1416.69 1964.65 1506.85 2075.86 1506.85Z" fill="black"/>
<mask id="path-2-outside-1_1_32" maskUnits="userSpaceOnUse" x="-18" y="2240.35" width="3961" height="722" fill="black">
<rect fill="white" x="-18" y="2240.35" width="3961" height="722"/>
<path d="M240.67 2395.88C240.67 2387.6 233.954 2380.88 225.67 2380.88H16C7.71572 2380.88 1 2374.17 1 2365.88V2274.35C1 2266.07 7.71573 2259.35 16 2259.35H597.013C605.297 2259.35 612.013 2266.07 612.013 2274.35V2365.88C612.013 2374.17 605.297 2380.88 597.013 2380.88H387.343C379.059 2380.88 372.343 2387.6 372.343 2395.88V2927.64C372.343 2935.93 365.627 2942.64 357.343 2942.64H255.67C247.386 2942.64 240.67 2935.93 240.67 2927.64V2395.88Z"/>
<path d="M769.838 2274.35C769.838 2266.07 776.553 2259.35 784.838 2259.35H1100.06C1149.9 2259.35 1193.1 2264.89 1229.65 2275.96C1266.21 2286.75 1296.53 2302.49 1320.62 2323.18C1344.71 2343.87 1362.57 2369.08 1374.2 2398.81C1386.11 2428.54 1392.07 2462.2 1392.07 2499.79C1392.07 2525.15 1389.16 2549.34 1383.34 2572.36C1377.53 2595.1 1368.53 2616.08 1356.34 2635.32C1344.44 2654.55 1329.34 2671.75 1311.07 2686.9C1297.07 2698.28 1281.21 2708.21 1263.47 2716.69C1254.92 2720.78 1251.52 2731.39 1256.78 2739.28C1282.08 2777.24 1348.55 2875.75 1381.73 2913.44C1387.56 2920.07 1387.83 2930.5 1381.59 2936.74L1380.09 2938.25C1377.27 2941.06 1373.46 2942.64 1369.48 2942.64H1235.03C1229.88 2942.64 1225.08 2940 1222.34 2935.63L1106.62 2751.71C1105.38 2749.74 1103.22 2748.54 1100.89 2748.54L916.544 2748.14C908.246 2748.12 901.511 2754.84 901.511 2763.14V2927.64C901.511 2935.93 894.795 2942.64 886.511 2942.64H784.838C776.553 2942.64 769.838 2935.93 769.838 2927.64V2274.35ZM1103.38 2628.32C1128.3 2628.32 1150.04 2625.26 1168.59 2619.14C1187.43 2613.02 1203.07 2604.42 1215.53 2593.35C1228.27 2582.27 1237.69 2568.87 1243.78 2553.13C1250.15 2537.1 1253.33 2519.32 1253.33 2499.79C1253.33 2461.61 1240.87 2432.18 1215.95 2411.49C1191.03 2390.5 1153.5 2380.01 1103.38 2380.01H916.511C908.226 2380.01 901.511 2386.73 901.511 2395.01V2613.32C901.511 2621.6 908.226 2628.32 916.511 2628.32H1103.38Z"/>
<path d="M1565.26 2274.35C1565.26 2266.07 1571.97 2259.35 1580.26 2259.35H2103.12C2111.4 2259.35 2118.12 2266.07 2118.12 2274.35V2365.88C2118.12 2374.17 2111.4 2380.88 2103.12 2380.88H1711.93C1703.65 2380.88 1696.93 2387.6 1696.93 2395.88V2537.32C1696.93 2545.6 1703.65 2552.32 1711.93 2552.32H2054.94C2063.22 2552.32 2069.94 2559.04 2069.94 2567.32V2651.42C2069.94 2659.71 2063.22 2666.42 2054.94 2666.42H1711.93C1703.65 2666.42 1696.93 2673.14 1696.93 2681.42V2806.55C1696.93 2814.83 1703.65 2821.55 1711.93 2821.55H2058.66C2058.66 2821.55 2058.66 2821.55 2058.66 2821.55C2058.66 2821.55 2093.69 2821.55 2111.2 2863.8C2122.04 2889.95 2125.45 2913.93 2126.48 2928.41C2127.05 2936.38 2120.58 2942.64 2112.59 2942.64H1580.26C1571.97 2942.64 1565.26 2935.93 1565.26 2927.64V2274.35Z"/>
<path d="M3791.19 2274.35C3791.19 2266.07 3797.91 2259.35 3806.19 2259.35H3908.69C3916.98 2259.35 3923.69 2266.07 3923.69 2274.35V2927.64C3923.69 2935.93 3916.98 2942.64 3908.69 2942.64H3806.19C3797.91 2942.64 3791.19 2935.93 3791.19 2927.64V2274.35Z"/>
<path d="M2290.07 2274.35C2290.07 2266.07 2296.78 2259.35 2305.07 2259.35H2406.74C2415.02 2259.35 2421.74 2266.07 2421.74 2274.35V2575.98C2421.74 2589.46 2438.13 2596.1 2447.51 2586.42L2760 2263.91C2762.83 2261 2766.71 2259.35 2770.77 2259.35H2933.06L2623.07 2575.44C2617.53 2581.09 2617.33 2590.06 2622.6 2595.95L2910.67 2917.64C2919.32 2927.3 2912.46 2942.64 2899.5 2942.64H2764.37C2760.17 2942.64 2756.16 2940.88 2753.32 2937.79L2529.2 2693.72C2523.39 2687.39 2513.47 2687.22 2507.45 2693.34L2426.05 2776.08C2423.29 2778.88 2421.74 2782.66 2421.74 2786.6V2927.64C2421.74 2935.93 2415.02 2942.64 2406.74 2942.64H2305.07C2296.78 2942.64 2290.07 2935.93 2290.07 2927.64V2274.35Z"/>
<path d="M3294.05 2268.88C3296.3 2263.13 3301.84 2259.35 3308.02 2259.35H3410.2C3416.32 2259.35 3421.82 2263.07 3424.11 2268.74L3687.72 2922.03C3691.7 2931.89 3684.44 2942.64 3673.81 2942.64H3567.45C3561.21 2942.64 3555.62 2938.78 3553.42 2932.94L3374.41 2458.49C3369.5 2445.48 3351.06 2445.58 3346.28 2458.64L3173.05 2932.7C3170.87 2938.66 3165.17 2942.61 3158.82 2942.55L3052.35 2941.59C3041.85 2941.49 3034.69 2930.9 3038.52 2921.12L3294.05 2268.88Z"/>
</mask>
<path d="M240.67 2395.88C240.67 2387.6 233.954 2380.88 225.67 2380.88H16C7.71572 2380.88 1 2374.17 1 2365.88V2274.35C1 2266.07 7.71573 2259.35 16 2259.35H597.013C605.297 2259.35 612.013 2266.07 612.013 2274.35V2365.88C612.013 2374.17 605.297 2380.88 597.013 2380.88H387.343C379.059 2380.88 372.343 2387.6 372.343 2395.88V2927.64C372.343 2935.93 365.627 2942.64 357.343 2942.64H255.67C247.386 2942.64 240.67 2935.93 240.67 2927.64V2395.88Z" fill="black"/>
<path d="M769.838 2274.35C769.838 2266.07 776.553 2259.35 784.838 2259.35H1100.06C1149.9 2259.35 1193.1 2264.89 1229.65 2275.96C1266.21 2286.75 1296.53 2302.49 1320.62 2323.18C1344.71 2343.87 1362.57 2369.08 1374.2 2398.81C1386.11 2428.54 1392.07 2462.2 1392.07 2499.79C1392.07 2525.15 1389.16 2549.34 1383.34 2572.36C1377.53 2595.1 1368.53 2616.08 1356.34 2635.32C1344.44 2654.55 1329.34 2671.75 1311.07 2686.9C1297.07 2698.28 1281.21 2708.21 1263.47 2716.69C1254.92 2720.78 1251.52 2731.39 1256.78 2739.28C1282.08 2777.24 1348.55 2875.75 1381.73 2913.44C1387.56 2920.07 1387.83 2930.5 1381.59 2936.74L1380.09 2938.25C1377.27 2941.06 1373.46 2942.64 1369.48 2942.64H1235.03C1229.88 2942.64 1225.08 2940 1222.34 2935.63L1106.62 2751.71C1105.38 2749.74 1103.22 2748.54 1100.89 2748.54L916.544 2748.14C908.246 2748.12 901.511 2754.84 901.511 2763.14V2927.64C901.511 2935.93 894.795 2942.64 886.511 2942.64H784.838C776.553 2942.64 769.838 2935.93 769.838 2927.64V2274.35ZM1103.38 2628.32C1128.3 2628.32 1150.04 2625.26 1168.59 2619.14C1187.43 2613.02 1203.07 2604.42 1215.53 2593.35C1228.27 2582.27 1237.69 2568.87 1243.78 2553.13C1250.15 2537.1 1253.33 2519.32 1253.33 2499.79C1253.33 2461.61 1240.87 2432.18 1215.95 2411.49C1191.03 2390.5 1153.5 2380.01 1103.38 2380.01H916.511C908.226 2380.01 901.511 2386.73 901.511 2395.01V2613.32C901.511 2621.6 908.226 2628.32 916.511 2628.32H1103.38Z" fill="black"/>
<path d="M1565.26 2274.35C1565.26 2266.07 1571.97 2259.35 1580.26 2259.35H2103.12C2111.4 2259.35 2118.12 2266.07 2118.12 2274.35V2365.88C2118.12 2374.17 2111.4 2380.88 2103.12 2380.88H1711.93C1703.65 2380.88 1696.93 2387.6 1696.93 2395.88V2537.32C1696.93 2545.6 1703.65 2552.32 1711.93 2552.32H2054.94C2063.22 2552.32 2069.94 2559.04 2069.94 2567.32V2651.42C2069.94 2659.71 2063.22 2666.42 2054.94 2666.42H1711.93C1703.65 2666.42 1696.93 2673.14 1696.93 2681.42V2806.55C1696.93 2814.83 1703.65 2821.55 1711.93 2821.55H2058.66C2058.66 2821.55 2058.66 2821.55 2058.66 2821.55C2058.66 2821.55 2093.69 2821.55 2111.2 2863.8C2122.04 2889.95 2125.45 2913.93 2126.48 2928.41C2127.05 2936.38 2120.58 2942.64 2112.59 2942.64H1580.26C1571.97 2942.64 1565.26 2935.93 1565.26 2927.64V2274.35Z" fill="black"/>
<path d="M3791.19 2274.35C3791.19 2266.07 3797.91 2259.35 3806.19 2259.35H3908.69C3916.98 2259.35 3923.69 2266.07 3923.69 2274.35V2927.64C3923.69 2935.93 3916.98 2942.64 3908.69 2942.64H3806.19C3797.91 2942.64 3791.19 2935.93 3791.19 2927.64V2274.35Z" fill="black"/>
<path d="M2290.07 2274.35C2290.07 2266.07 2296.78 2259.35 2305.07 2259.35H2406.74C2415.02 2259.35 2421.74 2266.07 2421.74 2274.35V2575.98C2421.74 2589.46 2438.13 2596.1 2447.51 2586.42L2760 2263.91C2762.83 2261 2766.71 2259.35 2770.77 2259.35H2933.06L2623.07 2575.44C2617.53 2581.09 2617.33 2590.06 2622.6 2595.95L2910.67 2917.64C2919.32 2927.3 2912.46 2942.64 2899.5 2942.64H2764.37C2760.17 2942.64 2756.16 2940.88 2753.32 2937.79L2529.2 2693.72C2523.39 2687.39 2513.47 2687.22 2507.45 2693.34L2426.05 2776.08C2423.29 2778.88 2421.74 2782.66 2421.74 2786.6V2927.64C2421.74 2935.93 2415.02 2942.64 2406.74 2942.64H2305.07C2296.78 2942.64 2290.07 2935.93 2290.07 2927.64V2274.35Z" fill="black"/>
<path d="M3294.05 2268.88C3296.3 2263.13 3301.84 2259.35 3308.02 2259.35H3410.2C3416.32 2259.35 3421.82 2263.07 3424.11 2268.74L3687.72 2922.03C3691.7 2931.89 3684.44 2942.64 3673.81 2942.64H3567.45C3561.21 2942.64 3555.62 2938.78 3553.42 2932.94L3374.41 2458.49C3369.5 2445.48 3351.06 2445.58 3346.28 2458.64L3173.05 2932.7C3170.87 2938.66 3165.17 2942.61 3158.82 2942.55L3052.35 2941.59C3041.85 2941.49 3034.69 2930.9 3038.52 2921.12L3294.05 2268.88Z" fill="black"/>
<path d="M1229.65 2275.96L1224.15 2294.15L1224.21 2294.17L1224.28 2294.19L1229.65 2275.96ZM1374.2 2398.81L1356.51 2405.73L1356.54 2405.8L1356.57 2405.87L1374.2 2398.81ZM1383.34 2572.36L1401.75 2577.07L1401.76 2577.04L1401.76 2577.02L1383.34 2572.36ZM1356.34 2635.32L1340.29 2625.15L1340.24 2625.23L1340.19 2625.31L1356.34 2635.32ZM1311.07 2686.9L1323.06 2701.64L1323.13 2701.58L1323.2 2701.53L1311.07 2686.9ZM1100.89 2748.54L1100.85 2767.54L1100.87 2767.54H1100.89V2748.54ZM1168.59 2619.14L1162.72 2601.07L1162.68 2601.08L1162.64 2601.1L1168.59 2619.14ZM1215.53 2593.35L1203.07 2579.01L1202.99 2579.08L1202.91 2579.15L1215.53 2593.35ZM1243.78 2553.13L1226.12 2546.11L1226.09 2546.19L1226.06 2546.27L1243.78 2553.13ZM1215.95 2411.49L1203.71 2426.02L1203.76 2426.06L1203.81 2426.1L1215.95 2411.49ZM2111.2 2863.8L2128.75 2856.53L2111.2 2863.8ZM2933.06 2259.35L2946.63 2272.66L2978.31 2240.35H2933.06V2259.35ZM1380.09 2938.25L1366.65 2924.82L1366.65 2924.82L1380.09 2938.25ZM3038.52 2921.12L3056.21 2928.05L3056.21 2928.05L3038.52 2921.12ZM3052.35 2941.59L3052.18 2960.59L3052.18 2960.59L3052.35 2941.59ZM3346.28 2458.64L3364.13 2465.16L3364.13 2465.16L3346.28 2458.64ZM3374.41 2458.49L3392.18 2451.78L3392.18 2451.78L3374.41 2458.49ZM3158.82 2942.55L3158.99 2923.55L3158.99 2923.55L3158.82 2942.55ZM3173.05 2932.7L3155.2 2926.18L3155.2 2926.18L3173.05 2932.7ZM3553.42 2932.94L3535.64 2939.65L3535.64 2939.65L3553.42 2932.94ZM3424.11 2268.74L3441.73 2261.63L3441.73 2261.63L3424.11 2268.74ZM3294.05 2268.88L3276.36 2261.95L3276.36 2261.95L3294.05 2268.88ZM2126.48 2928.41L2145.43 2927.07L2126.48 2928.41ZM916.544 2748.14L916.585 2729.14L916.585 2729.14L916.544 2748.14ZM1106.62 2751.71L1122.7 2741.59L1122.7 2741.59L1106.62 2751.71ZM1222.34 2935.63L1206.25 2945.75L1206.25 2945.75L1222.34 2935.63ZM2426.05 2776.08L2439.59 2789.4L2439.59 2789.4L2426.05 2776.08ZM1381.73 2913.44L1367.47 2926L1381.73 2913.44ZM1381.59 2936.74L1395.03 2950.18L1395.03 2950.18L1381.59 2936.74ZM2529.2 2693.72L2515.2 2706.57L2515.2 2706.57L2529.2 2693.72ZM2507.45 2693.34L2493.91 2680.01L2493.91 2680.01L2507.45 2693.34ZM3687.72 2922.03L3670.1 2929.14L3670.1 2929.14L3687.72 2922.03ZM1263.47 2716.69L1271.67 2733.83L1271.67 2733.83L1263.47 2716.69ZM1256.78 2739.28L1272.59 2728.74L1256.78 2739.28ZM2753.32 2937.79L2767.31 2924.94L2767.31 2924.94L2753.32 2937.79ZM2910.67 2917.64L2896.52 2930.31L2896.52 2930.31L2910.67 2917.64ZM2623.07 2575.44L2636.64 2588.74L2636.64 2588.74L2623.07 2575.44ZM2622.6 2595.95L2636.76 2583.28L2636.76 2583.28L2622.6 2595.95ZM2760 2263.91L2746.36 2250.69L2746.36 2250.69L2760 2263.91ZM2447.51 2586.42L2461.16 2599.64L2461.16 2599.64L2447.51 2586.42ZM225.67 2361.88H16V2399.88H225.67V2361.88ZM20 2365.88V2274.35H-18V2365.88H20ZM16 2278.35H597.013V2240.35H16V2278.35ZM593.013 2274.35V2365.88H631.013V2274.35H593.013ZM597.013 2361.88H387.343V2399.88H597.013V2361.88ZM353.343 2395.88V2927.64H391.343V2395.88H353.343ZM357.343 2923.64H255.67V2961.64H357.343V2923.64ZM259.67 2927.64V2395.88H221.67V2927.64H259.67ZM784.838 2278.35H1100.06V2240.35H784.838V2278.35ZM1100.06 2278.35C1148.57 2278.35 1189.83 2283.75 1224.15 2294.15L1235.16 2257.78C1196.38 2246.03 1151.23 2240.35 1100.06 2240.35V2278.35ZM1224.28 2294.19C1258.76 2304.36 1286.55 2318.96 1308.24 2337.59L1333 2308.76C1306.5 2286.01 1273.65 2269.13 1235.03 2257.74L1224.28 2294.19ZM1308.24 2337.59C1329.96 2356.25 1346.01 2378.88 1356.51 2405.73L1391.9 2391.89C1379.14 2359.28 1359.46 2331.49 1333 2308.76L1308.24 2337.59ZM1356.57 2405.87C1367.43 2433 1373.07 2464.2 1373.07 2499.79H1411.07C1411.07 2460.19 1404.79 2424.07 1391.84 2391.74L1356.57 2405.87ZM1373.07 2499.79C1373.07 2523.69 1370.33 2546.31 1364.92 2567.71L1401.76 2577.02C1407.99 2552.37 1411.07 2526.61 1411.07 2499.79H1373.07ZM1364.94 2567.65C1359.6 2588.51 1351.38 2607.65 1340.29 2625.15L1372.39 2645.48C1385.68 2624.51 1395.46 2601.68 1401.75 2577.07L1364.94 2567.65ZM1340.19 2625.31C1329.42 2642.72 1315.71 2658.37 1298.94 2672.27L1323.2 2701.53C1342.98 2685.12 1359.46 2666.39 1372.5 2645.32L1340.19 2625.31ZM1299.08 2672.16C1286.35 2682.52 1271.78 2691.66 1255.28 2699.55L1271.67 2733.83C1290.64 2724.77 1307.8 2714.05 1323.06 2701.64L1299.08 2672.16ZM1240.97 2749.82C1265.95 2787.29 1333.24 2887.11 1367.47 2926L1395.99 2900.89C1363.86 2864.39 1298.22 2767.19 1272.59 2728.74L1240.97 2749.82ZM1238.42 2925.51L1122.7 2741.59L1090.54 2761.82L1206.25 2945.75L1238.42 2925.51ZM1100.93 2729.54L916.585 2729.14L916.502 2767.14L1100.85 2767.54L1100.93 2729.54ZM882.511 2763.14V2927.64H920.511V2763.14H882.511ZM886.511 2923.64H784.838V2961.64H886.511V2923.64ZM788.838 2927.64V2274.35H750.838V2927.64H788.838ZM1103.38 2647.32C1129.8 2647.32 1153.63 2644.08 1174.55 2637.18L1162.64 2601.1C1146.46 2606.44 1126.81 2609.32 1103.38 2609.32V2647.32ZM1174.47 2637.21C1195.33 2630.43 1213.4 2620.66 1228.15 2607.55L1202.91 2579.15C1192.74 2588.18 1179.52 2595.61 1162.72 2601.07L1174.47 2637.21ZM1228 2607.69C1243.07 2594.58 1254.29 2578.61 1261.5 2559.99L1226.06 2546.27C1221.08 2559.12 1213.47 2569.96 1203.07 2579.01L1228 2607.69ZM1261.43 2560.14C1268.8 2541.61 1272.33 2521.41 1272.33 2499.79H1234.33C1234.33 2517.23 1231.49 2532.59 1226.12 2546.11L1261.43 2560.14ZM1272.33 2499.79C1272.33 2457.08 1258.15 2421.83 1228.08 2396.87L1203.81 2426.1C1223.59 2442.53 1234.33 2466.14 1234.33 2499.79H1272.33ZM1228.18 2396.95C1198.41 2371.88 1155.68 2361.01 1103.38 2361.01V2399.01C1151.33 2399.01 1183.64 2409.12 1203.71 2426.02L1228.18 2396.95ZM1103.38 2361.01H916.511V2399.01H1103.38V2361.01ZM882.511 2395.01V2613.32H920.511V2395.01H882.511ZM916.511 2647.32H1103.38V2609.32H916.511V2647.32ZM1580.26 2278.35H2103.12V2240.35H1580.26V2278.35ZM2099.12 2274.35V2365.88H2137.12V2274.35H2099.12ZM2103.12 2361.88H1711.93V2399.88H2103.12V2361.88ZM1677.93 2395.88V2537.32H1715.93V2395.88H1677.93ZM1711.93 2571.32H2054.94V2533.32H1711.93V2571.32ZM2050.94 2567.32V2651.42H2088.94V2567.32H2050.94ZM2054.94 2647.42H1711.93V2685.42H2054.94V2647.42ZM1677.93 2681.42V2806.55H1715.93V2681.42H1677.93ZM2112.59 2923.64H1580.26V2961.64H2112.59V2923.64ZM1584.26 2927.64V2274.35H1546.26V2927.64H1584.26ZM2305.07 2278.35H2406.74V2240.35H2305.07V2278.35ZM2402.74 2274.35V2575.98H2440.74V2274.35H2402.74ZM2461.16 2599.64L2773.65 2277.14L2746.36 2250.69L2433.87 2573.2L2461.16 2599.64ZM2770.77 2278.35H2933.06V2240.35H2770.77V2278.35ZM2919.5 2246.05L2609.5 2562.14L2636.64 2588.74L2946.63 2272.66L2919.5 2246.05ZM2899.5 2923.64H2764.37V2961.64H2899.5V2923.64ZM2767.31 2924.94L2543.19 2680.86L2515.2 2706.57L2739.32 2950.64L2767.31 2924.94ZM2493.91 2680.01L2412.5 2762.75L2439.59 2789.4L2521 2706.67L2493.91 2680.01ZM2402.74 2786.6V2927.64H2440.74V2786.6H2402.74ZM2406.74 2923.64H2305.07V2961.64H2406.74V2923.64ZM2309.07 2927.64V2274.35H2271.07V2927.64H2309.07ZM3806.19 2278.35H3908.69V2240.35H3806.19V2278.35ZM3904.69 2274.35V2927.64H3942.69V2274.35H3904.69ZM3908.69 2923.64H3806.19V2961.64H3908.69V2923.64ZM3810.19 2927.64V2274.35H3772.19V2927.64H3810.19ZM2608.45 2608.63L2896.52 2930.31L2924.82 2904.96L2636.76 2583.28L2608.45 2608.63ZM3308.02 2278.35H3410.2V2240.35H3308.02V2278.35ZM3406.49 2275.85L3670.1 2929.14L3705.34 2914.92L3441.73 2261.63L3406.49 2275.85ZM3673.81 2923.64H3567.45V2961.64H3673.81V2923.64ZM3276.36 2261.95L3020.83 2914.19L3056.21 2928.05L3311.74 2275.81L3276.36 2261.95ZM3052.18 2960.59L3158.65 2961.55L3158.99 2923.55L3052.53 2922.59L3052.18 2960.59ZM3328.44 2452.12L3155.2 2926.18L3190.89 2939.22L3364.13 2465.16L3328.44 2452.12ZM3571.19 2926.23L3392.18 2451.78L3356.63 2465.2L3535.64 2939.65L3571.19 2926.23ZM1711.93 2840.55H2058.66V2802.55H1711.93V2840.55ZM2058.66 2840.55C2055.65 2840.55 2080.53 2839.42 2093.65 2871.08L2128.75 2856.53C2106.85 2803.68 2061.67 2802.55 2058.66 2802.55L2058.66 2840.55ZM2093.65 2871.08C2103.48 2894.81 2106.6 2916.66 2107.53 2929.76L2145.43 2927.07C2144.31 2911.2 2140.59 2885.09 2128.75 2856.53L2093.65 2871.08ZM1368.15 2923.31L1366.65 2924.82L1393.53 2951.68L1395.03 2950.18L1368.15 2923.31ZM1369.48 2923.64H1235.03V2961.64H1369.48V2923.64ZM1366.65 2924.82C1367.4 2924.07 1368.42 2923.64 1369.48 2923.64V2961.64C1378.5 2961.64 1387.15 2958.06 1393.53 2951.68L1366.65 2924.82ZM2058.66 2840.55C2058.66 2840.55 2058.66 2840.55 2058.66 2840.55C2058.66 2840.55 2058.66 2840.55 2058.66 2840.55C2058.66 2840.55 2058.66 2840.55 2058.66 2840.55C2058.66 2840.55 2058.66 2840.55 2058.66 2840.55C2058.66 2840.55 2058.66 2840.55 2058.66 2840.55C2058.66 2840.55 2058.66 2840.55 2058.66 2840.55C2058.67 2840.55 2058.68 2840.55 2058.69 2840.55C2058.66 2840.55 2058.66 2840.55 2058.66 2840.55C2058.66 2821.55 2058.66 2802.55 2058.66 2802.55C2058.66 2802.55 2058.66 2802.55 2058.66 2802.55C2058.66 2802.55 2058.66 2802.55 2058.66 2802.55C2058.66 2802.55 2058.66 2802.55 2058.66 2802.55C2058.66 2802.55 2058.66 2802.55 2058.66 2802.55C2058.66 2802.55 2058.66 2802.55 2058.66 2802.55C2058.66 2802.55 2058.66 2802.55 2058.66 2802.55C2058.66 2802.55 2058.66 2802.55 2058.66 2802.55C2058.66 2802.55 2058.66 2802.55 2058.66 2802.55C2058.66 2802.55 2058.66 2802.55 2058.66 2802.55C2058.66 2802.55 2058.66 2802.55 2058.66 2802.55C2058.66 2802.55 2058.66 2802.55 2058.66 2802.55C2058.66 2802.55 2058.66 2802.55 2058.66 2802.55C2058.66 2802.55 2058.66 2802.55 2058.66 2802.55C2058.66 2802.55 2058.66 2802.55 2058.66 2802.55C2058.66 2802.55 2058.66 2802.55 2058.66 2802.55C2058.66 2802.55 2058.66 2802.55 2058.66 2802.55C2058.66 2802.55 2058.66 2802.55 2058.66 2802.55C2058.66 2802.55 2058.66 2802.55 2058.66 2802.55C2058.66 2802.55 2058.66 2802.55 2058.66 2802.55C2058.66 2802.55 2058.66 2802.55 2058.66 2802.55C2058.66 2802.55 2058.66 2802.55 2058.65 2802.55C2058.66 2802.55 2058.66 2802.55 2058.66 2802.55C2058.66 2802.55 2058.66 2802.55 2058.66 2802.55C2058.66 2802.55 2058.66 2802.55 2058.66 2802.55C2058.66 2802.55 2058.66 2821.55 2058.66 2840.55C2058.66 2840.55 2058.66 2840.55 2058.66 2840.55C2058.66 2840.55 2058.66 2840.55 2058.66 2840.55C2058.66 2840.55 2058.66 2840.55 2058.66 2840.55C2058.66 2840.55 2058.66 2840.55 2058.66 2840.55C2058.66 2840.55 2058.66 2840.55 2058.66 2840.55C2058.66 2840.55 2058.66 2840.55 2058.66 2840.55C2058.66 2840.55 2058.66 2840.55 2058.66 2840.55C2058.66 2840.55 2058.66 2840.55 2058.66 2840.55C2058.66 2840.55 2058.66 2840.55 2058.66 2840.55L2058.66 2802.55C2058.66 2802.55 2058.66 2802.55 2058.66 2802.55C2058.66 2802.55 2058.66 2802.55 2058.66 2802.55C2058.66 2802.55 2058.66 2802.55 2058.66 2802.55C2058.66 2802.55 2058.66 2802.55 2058.66 2802.55C2058.66 2802.55 2058.66 2802.55 2058.66 2802.55C2058.66 2802.55 2058.66 2802.55 2058.66 2802.55C2058.66 2802.55 2058.66 2802.55 2058.66 2802.55C2058.66 2802.55 2058.66 2802.55 2058.66 2802.55C2058.66 2802.55 2058.66 2802.55 2058.66 2802.55C2058.66 2802.55 2058.66 2802.55 2058.66 2802.55C2058.66 2802.55 2058.66 2802.55 2058.66 2802.55C2058.66 2802.55 2058.66 2802.55 2058.66 2802.55C2058.66 2802.55 2058.66 2802.55 2058.66 2802.55C2058.66 2802.55 2058.66 2802.55 2058.66 2802.55C2058.66 2802.55 2058.66 2802.55 2058.66 2802.55C2058.66 2802.55 2058.66 2802.55 2058.66 2802.55C2058.66 2802.55 2058.66 2802.55 2058.66 2802.55C2058.66 2821.55 2058.66 2840.55 2058.66 2840.55C2058.66 2840.55 2058.66 2840.55 2058.66 2840.55C2058.66 2840.55 2058.66 2840.55 2058.67 2840.55C2058.66 2840.55 2058.66 2840.55 2058.66 2840.55C2058.66 2840.55 2058.66 2840.55 2058.66 2840.55C2058.66 2840.55 2058.66 2840.55 2058.66 2840.55C2058.66 2840.55 2058.66 2840.55 2058.66 2840.55C2058.66 2840.55 2058.66 2840.55 2058.66 2840.55C2058.66 2840.55 2058.66 2840.55 2058.66 2840.55C2058.66 2840.55 2058.66 2840.55 2058.66 2840.55C2058.66 2840.55 2058.66 2840.55 2058.66 2840.55C2058.66 2840.55 2058.66 2840.55 2058.66 2840.55C2058.66 2840.55 2058.66 2840.55 2058.66 2840.55C2058.66 2840.55 2058.66 2840.55 2058.66 2840.55C2058.66 2840.55 2058.66 2840.55 2058.66 2840.55C2058.66 2840.55 2058.66 2840.55 2058.66 2840.55C2058.66 2840.55 2058.66 2840.55 2058.66 2840.55C2058.66 2840.55 2058.66 2840.55 2058.66 2840.55C2058.66 2840.55 2058.66 2821.55 2058.66 2802.55C2058.66 2802.55 2058.66 2802.55 2058.66 2802.55C2058.64 2802.55 2058.65 2802.55 2058.66 2802.55C2058.66 2802.55 2058.66 2802.55 2058.66 2802.55C2058.66 2802.55 2058.66 2802.55 2058.66 2802.55C2058.66 2802.55 2058.66 2802.55 2058.66 2802.55C2058.66 2802.55 2058.66 2802.55 2058.66 2802.55C2058.66 2802.55 2058.66 2802.55 2058.66 2802.55C2058.66 2802.55 2058.66 2802.55 2058.66 2802.55V2840.55ZM3020.83 2914.19C3012.14 2936.37 3028.36 2960.37 3052.18 2960.59L3052.53 2922.59C3055.33 2922.61 3057.24 2925.44 3056.21 2928.05L3020.83 2914.19ZM3364.13 2465.16C3363.92 2465.74 3363.37 2466.53 3362.5 2467.11C3361.73 2467.62 3360.99 2467.78 3360.39 2467.79C3359.8 2467.79 3359.05 2467.63 3358.28 2467.13C3357.4 2466.56 3356.85 2465.77 3356.63 2465.2L3392.18 2451.78C3381.05 2422.29 3339.26 2422.51 3328.44 2452.12L3364.13 2465.16ZM3158.65 2961.55C3173.04 2961.68 3185.95 2952.73 3190.89 2939.22L3155.2 2926.18C3155.78 2924.59 3157.3 2923.53 3158.99 2923.55L3158.65 2961.55ZM3567.45 2923.64C3569.12 2923.64 3570.61 2924.67 3571.19 2926.23L3535.64 2939.65C3540.64 2952.88 3553.3 2961.64 3567.45 2961.64V2923.64ZM3410.2 2278.35C3408.57 2278.35 3407.1 2277.36 3406.49 2275.85L3441.73 2261.63C3436.54 2248.77 3424.06 2240.35 3410.2 2240.35V2278.35ZM3308.02 2240.35C3294.02 2240.35 3281.46 2248.92 3276.36 2261.95L3311.74 2275.81C3311.14 2277.34 3309.66 2278.35 3308.02 2278.35V2240.35ZM3806.19 2923.64C3808.4 2923.64 3810.19 2925.43 3810.19 2927.64H3772.19C3772.19 2946.42 3787.41 2961.64 3806.19 2961.64V2923.64ZM3904.69 2927.64C3904.69 2925.43 3906.48 2923.64 3908.69 2923.64V2961.64C3927.47 2961.64 3942.69 2946.42 3942.69 2927.64H3904.69ZM3908.69 2278.35C3906.48 2278.35 3904.69 2276.56 3904.69 2274.35H3942.69C3942.69 2255.57 3927.47 2240.35 3908.69 2240.35V2278.35ZM3806.19 2240.35C3787.41 2240.35 3772.19 2255.57 3772.19 2274.35H3810.19C3810.19 2276.56 3808.4 2278.35 3806.19 2278.35V2240.35ZM2305.07 2923.64C2307.28 2923.64 2309.07 2925.43 2309.07 2927.64H2271.07C2271.07 2946.42 2286.29 2961.64 2305.07 2961.64V2923.64ZM2402.74 2927.64C2402.74 2925.43 2404.53 2923.64 2406.74 2923.64V2961.64C2425.52 2961.64 2440.74 2946.42 2440.74 2927.64H2402.74ZM2305.07 2240.35C2286.29 2240.35 2271.07 2255.57 2271.07 2274.35H2309.07C2309.07 2276.56 2307.28 2278.35 2305.07 2278.35V2240.35ZM1580.26 2923.64C1582.47 2923.64 1584.26 2925.43 1584.26 2927.64H1546.26C1546.26 2946.42 1561.48 2961.64 1580.26 2961.64V2923.64ZM2112.59 2961.64C2130.39 2961.64 2146.86 2947.2 2145.43 2927.07L2107.53 2929.76C2107.4 2928.02 2108.12 2926.27 2109.26 2925.12C2110.33 2924.05 2111.58 2923.64 2112.59 2923.64V2961.64ZM1677.93 2806.55C1677.93 2825.33 1693.15 2840.55 1711.93 2840.55V2802.55C1714.14 2802.55 1715.93 2804.34 1715.93 2806.55H1677.93ZM1711.93 2647.42C1693.15 2647.42 1677.93 2662.64 1677.93 2681.42H1715.93C1715.93 2683.63 1714.14 2685.42 1711.93 2685.42V2647.42ZM2050.94 2651.42C2050.94 2649.21 2052.73 2647.42 2054.94 2647.42V2685.42C2073.71 2685.42 2088.94 2670.2 2088.94 2651.42H2050.94ZM2054.94 2571.32C2052.73 2571.32 2050.94 2569.53 2050.94 2567.32H2088.94C2088.94 2548.54 2073.71 2533.32 2054.94 2533.32V2571.32ZM1677.93 2537.32C1677.93 2556.1 1693.15 2571.32 1711.93 2571.32V2533.32C1714.14 2533.32 1715.93 2535.11 1715.93 2537.32H1677.93ZM1711.93 2361.88C1693.15 2361.88 1677.93 2377.11 1677.93 2395.88H1715.93C1715.93 2398.09 1714.14 2399.88 1711.93 2399.88V2361.88ZM2099.12 2365.88C2099.12 2363.67 2100.91 2361.88 2103.12 2361.88V2399.88C2121.9 2399.88 2137.12 2384.66 2137.12 2365.88H2099.12ZM2103.12 2278.35C2100.91 2278.35 2099.12 2276.56 2099.12 2274.35H2137.12C2137.12 2255.57 2121.9 2240.35 2103.12 2240.35V2278.35ZM1580.26 2240.35C1561.48 2240.35 1546.26 2255.57 1546.26 2274.35H1584.26C1584.26 2276.56 1582.47 2278.35 1580.26 2278.35V2240.35ZM882.511 2613.32C882.511 2632.1 897.733 2647.32 916.511 2647.32V2609.32C918.72 2609.32 920.511 2611.11 920.511 2613.32H882.511ZM916.511 2361.01C897.733 2361.01 882.511 2376.23 882.511 2395.01H920.511C920.511 2397.22 918.72 2399.01 916.511 2399.01V2361.01ZM916.585 2729.14C897.778 2729.1 882.511 2744.33 882.511 2763.14H920.511C920.511 2765.35 918.714 2767.14 916.502 2767.14L916.585 2729.14ZM1122.7 2741.59C1117.98 2734.09 1109.75 2729.54 1100.89 2729.54V2767.54C1096.68 2767.54 1092.78 2765.38 1090.54 2761.82L1122.7 2741.59ZM1206.25 2945.75C1212.48 2955.64 1223.34 2961.64 1235.03 2961.64V2923.64C1236.41 2923.64 1237.69 2924.35 1238.42 2925.51L1206.25 2945.75ZM2412.5 2762.75C2406.25 2769.11 2402.74 2777.67 2402.74 2786.6H2440.74C2440.74 2787.65 2440.33 2788.65 2439.59 2789.4L2412.5 2762.75ZM784.838 2240.35C766.06 2240.35 750.838 2255.57 750.838 2274.35H788.838C788.838 2276.56 787.047 2278.35 784.838 2278.35V2240.35ZM1367.47 2926C1367.23 2925.73 1367.19 2925.52 1367.18 2925.31C1367.18 2925.04 1367.31 2924.16 1368.15 2923.31L1395.03 2950.18C1409.21 2935.99 1407.61 2914.09 1395.99 2900.89L1367.47 2926ZM2543.19 2680.86C2530.03 2666.53 2507.56 2666.15 2493.91 2680.01L2521 2706.67C2519.39 2708.3 2516.75 2708.25 2515.2 2706.57L2543.19 2680.86ZM255.67 2923.64C257.879 2923.64 259.67 2925.43 259.67 2927.64H221.67C221.67 2946.42 236.892 2961.64 255.67 2961.64V2923.64ZM3670.1 2929.14C3669.04 2926.51 3670.97 2923.64 3673.81 2923.64V2961.64C3697.91 2961.64 3714.36 2937.27 3705.34 2914.92L3670.1 2929.14ZM1255.28 2699.55C1237.23 2708.18 1228.74 2731.47 1240.97 2749.82L1272.59 2728.74C1273.34 2729.87 1273.4 2731.2 1273.13 2732.09C1272.88 2732.89 1272.34 2733.51 1271.67 2733.83L1255.28 2699.55ZM2764.37 2923.64C2765.49 2923.64 2766.56 2924.11 2767.31 2924.94L2739.32 2950.64C2745.76 2957.65 2754.85 2961.64 2764.37 2961.64V2923.64ZM353.343 2927.64C353.343 2925.43 355.134 2923.64 357.343 2923.64V2961.64C376.121 2961.64 391.343 2946.42 391.343 2927.64H353.343ZM2899.5 2961.64C2928.89 2961.64 2944.43 2926.86 2924.82 2904.96L2896.52 2930.31C2894.21 2927.74 2896.04 2923.64 2899.5 2923.64V2961.64ZM387.343 2361.88C368.565 2361.88 353.343 2377.11 353.343 2395.88H391.343C391.343 2398.09 389.552 2399.88 387.343 2399.88V2361.88ZM2609.5 2562.14C2596.96 2574.93 2596.49 2595.27 2608.45 2608.63L2636.76 2583.28C2638.17 2584.85 2638.11 2587.24 2636.64 2588.74L2609.5 2562.14ZM593.013 2365.88C593.013 2363.67 594.804 2361.88 597.013 2361.88V2399.88C615.79 2399.88 631.013 2384.66 631.013 2365.88H593.013ZM597.013 2278.35C594.804 2278.35 593.013 2276.56 593.013 2274.35H631.013C631.013 2255.57 615.79 2240.35 597.013 2240.35V2278.35ZM2773.65 2277.14C2772.89 2277.91 2771.86 2278.35 2770.77 2278.35V2240.35C2761.57 2240.35 2752.76 2244.08 2746.36 2250.69L2773.65 2277.14ZM20 2274.35C20 2276.56 18.2091 2278.35 16 2278.35V2240.35C-2.77766 2240.35 -18 2255.57 -18 2274.35H20ZM784.838 2923.64C787.047 2923.64 788.838 2925.43 788.838 2927.64H750.838C750.838 2946.42 766.06 2961.64 784.838 2961.64V2923.64ZM2402.74 2575.98C2402.74 2606.53 2439.9 2621.58 2461.16 2599.64L2433.87 2573.2C2434.3 2572.75 2435.09 2572.27 2436.07 2572.09C2436.95 2571.92 2437.69 2572.05 2438.24 2572.28C2438.8 2572.5 2439.41 2572.92 2439.93 2573.65C2440.51 2574.46 2440.74 2575.36 2440.74 2575.98H2402.74ZM16 2361.88C18.2091 2361.88 20 2363.67 20 2365.88H-18C-18 2384.66 -2.7777 2399.88 16 2399.88V2361.88ZM882.511 2927.64C882.511 2925.43 884.301 2923.64 886.511 2923.64V2961.64C905.288 2961.64 920.511 2946.42 920.511 2927.64H882.511ZM2406.74 2278.35C2404.53 2278.35 2402.74 2276.56 2402.74 2274.35H2440.74C2440.74 2255.57 2425.52 2240.35 2406.74 2240.35V2278.35ZM225.67 2399.88C223.461 2399.88 221.67 2398.09 221.67 2395.88H259.67C259.67 2377.11 244.448 2361.88 225.67 2361.88V2399.88Z" fill="black" mask="url(#path-2-outside-1_1_32)"/>
</g>
<defs>
<clipPath id="clip0_1_32">
<rect width="4001" height="2944" fill="white"/>
</clipPath>
</defs>
</svg>
